{"title":"MILF UNRATED 2010 DvDRip H264 Feel-Free","uid":6071093,"size":742348529,"categoryP":"video","categoryS":"movies","magnet":"?xt=urn:btih:95930f97549657ca4e9cfb9edf9443f7eda5bebf&amp;dn=MILF+UNRATED+2010+DvDRip+H264+Feel-Free&amp;tr=udp%3A%2F%2Ftracker.openbittorrent.com%3A80&amp;tr=udp%3A%2F%2Fopen.demonii.com%3A1337&amp;tr=udp%3A%2F%2Ftracker.coppersurfer.tk%3A6969&amp;tr=udp%3A%2F%2Fexodus.desync.com%3A6969","seeders":0,"leechers":1,"uploader":"hiest","files":-1,"time":1293620249,"description":"Genre:Comedy\nLanguage:English\nIMDb:http://www.imdb.com/title/tt1730704/\nSource:UNRATED.NTSC.DVDR.Thx\n\n\nFormat : MPEG-4\nFormat profile : Base Media\nCodec ID : isom\nFile size : 706 MiB\nDuration : 1h 28mn\nOverall bit rate : 1 118 Kbps\n\n\nVideo\nCodec ID : avc1\nCodec ID/Info : Advanced Video Coding\nDuration : 1h 28mn\nBit rate mode : Variable\nBit rate : 951 Kbps\nWidth : 720 pixels\nHeight : 384 pixels\nDisplay aspect ratio : 1.875\nFrame rate mode : Constant\nFrame rate : 23.976 fps\nOriginal frame rate : 23.000 fps\nColor space : YUV\nChroma subsampling : 4:2:0\nBit depth : 8 bits\nScan type : Progressive\nBits/(Pixel*Frame) : 0.143\nStream size : 600 MiB (85%)\n\n\nAudio\nID : 1\nFormat : AAC\nFormat/Info : Advanced Audio Codec\nFormat version : Version 4\nFormat profile : LC\nCodec ID : 40\nDuration : 1h 28mn\nBit rate mode : Constant\nBit rate : 160 Kbps\nChannel(s) : 2 channels\nChannel positions : Front: L R\nSampling rate : 48.0 KHz\nStream size : 101 MiB (14%)\nLanguage : English\n\n\nPlot:\nA group of nerdy college guys who can't seem to connect with girls their own age discover the excitement of hooking up with sexy older women.\n\n\n\n\n\n================================== &lt;a href=&quot;\nhttp://thepiratebay.se/user/hiest&quot; rel=&quot;nofollow&quot; target=&quot;_NEW&quot;&gt;\nhttp://thepiratebay.se/user/hiest&lt;/a&gt;\n==================================\n\n\n\n\n\nScreen Shots:\n &lt;a href=&quot;\nhttp://img63.imageshack.us/img63/6117/vlcsnap2010122822h27m49.png&quot; rel=&quot;nofollow&quot; target=&quot;_NEW&quot;&gt;\nhttp://img63.imageshack.us/img63/6117/vlcsnap2010122822h27m49.png&lt;/a&gt;\n &lt;a href=&quot;\nhttp://img340.imageshack.us/img340/991/vlcsnap2010122822h27m54.png&quot; rel=&quot;nofollow&quot; target=&quot;_NEW&quot;&gt;\nhttp://img340.imageshack.us/img340/991/vlcsnap2010122822h27m54.png&lt;/a&gt;\n &lt;a href=&quot;\nhttp://img189.imageshack.us/img189/7991/vlcsnap2010122822h28m54.png&quot; rel=&quot;nofollow&quot; target=&quot;_NEW&quot;&gt;\nhttp://img189.imageshack.us/img189/7991/vlcsnap2010122822h28m54.png&lt;/a&gt;\n &lt;a href=&quot;\nhttp://img209.imageshack.us/img209/3601/vlcsnap2010122822h29m11.png&quot; rel=&quot;nofollow&quot; target=&quot;_NEW&quot;&gt;\nhttp://img209.imageshack.us/img209/3601/vlcsnap2010122822h29m11.png&lt;/a&gt;\n &lt;a href=&quot;\nhttp://img5.imageshack.us/img5/2387/vlcsnap2010122822h28m09.png&quot; rel=&quot;nofollow&quot; target=&quot;_NEW&quot;&gt;\nhttp://img5.imageshack.us/img5/2387/vlcsnap2010122822h28m09.png&lt;/a&gt;","torrent":{"xt":"urn:btih:95930f97549657ca4e9cfb9edf9443f7eda5bebf","amp;dn":"MILF+UNRATED+2010+DvDRip+H264+Feel-Free","amp;tr":["udp%3A%2F%2Ftracker.openbittorrent.com%3A80","udp%3A%2F%2Fopen.demonii.com%3A1337","udp%3A%2F%2Ftracker.coppersurfer.tk%3A6969","udp%3A%2F%2Fexodus.desync.com%3A6969"],"infoHash":"95930f97549657ca4e9cfb9edf9443f7eda5bebf","infoHashBuffer":{"type":"Buffer","data":[149,147,15,151,84,150,87,202,78,156,251,158,223,148,67,247,237,165,190,191]},"announce":[],"urlList":[]}}